<svg width="234" height="38" viewBox="0 0 234 38" fill="none" xmlns="http://www.w3.org/2000/svg">
<rect width="37.5669" height="37.2315" rx="7.71463" fill="white"/>
<path d="M24.1574 31.1574C29.3482 29.4234 32.1495 23.807 30.4144 18.6128C29.5356 15.9818 27.6614 13.9638 25.3512 12.8381L11.2878 6.18388C8.04838 4.82661 5.4382 6.3955 6.69489 10.1575L11.6169 24.892C13.3521 30.0863 18.9666 32.8914 24.1574 31.1574Z" fill="black"/>
<path d="M63.6869 32L54.9003 20.4582V32H48.5337V5.8635H54.9003V17.3308L63.6124 5.8635H71.096L60.969 18.6711L71.4683 32H63.6869ZM73.4142 18.8945C73.4142 16.3131 73.9727 14.0172 75.0896 12.0067C76.2066 9.97137 77.7579 8.39524 79.7436 7.27829C81.7541 6.13653 84.0252 5.56564 86.5569 5.56564C89.6596 5.56564 92.3154 6.38474 94.5245 8.02292C96.7335 9.66111 98.2104 11.895 98.955 14.7246H91.9555C91.4343 13.6325 90.6896 12.801 89.7216 12.2301C88.7784 11.6592 87.6987 11.3738 86.4825 11.3738C84.5216 11.3738 82.9331 12.0563 81.7168 13.4215C80.5006 14.7866 79.8925 16.611 79.8925 18.8945C79.8925 21.178 80.5006 23.0024 81.7168 24.3675C82.9331 25.7327 84.5216 26.4153 86.4825 26.4153C87.6987 26.4153 88.7784 26.1298 89.7216 25.559C90.6896 24.9881 91.4343 24.1566 91.9555 23.0644H98.955C98.2104 25.894 96.7335 28.1279 94.5245 29.7661C92.3154 31.3795 89.6596 32.1862 86.5569 32.1862C84.0252 32.1862 81.7541 31.6277 79.7436 30.5107C77.7579 29.369 76.2066 27.7928 75.0896 25.7823C73.9727 23.7718 73.4142 21.4759 73.4142 18.8945ZM132.453 5.8635V32H126.086V16.3255L120.241 32H115.103L109.22 16.2883V32H102.854V5.8635H110.375L117.709 23.958L124.969 5.8635H132.453ZM149.942 13.2353V26.6014C149.942 28.0907 150.215 29.1208 150.761 29.6916C151.307 30.2377 152.275 30.5107 153.665 30.5107H155.936V32H153.404C151.642 32 150.339 31.5905 149.495 30.7714C148.676 29.9274 148.266 28.5375 148.266 26.6014V13.2353H145.213V11.7833H148.266V6.64536H149.942V11.7833H155.936V13.2353H149.942ZM178.561 20.5327C178.561 21.4263 178.536 22.0964 178.486 22.5432H161.025C161.074 24.3551 161.472 25.8816 162.216 27.1227C162.961 28.3637 163.941 29.2945 165.158 29.915C166.374 30.5356 167.702 30.8458 169.141 30.8458C171.127 30.8458 172.79 30.3618 174.13 29.3938C175.471 28.401 176.315 27.0606 176.662 25.3728H178.412C178.015 27.4329 176.997 29.1084 175.359 30.399C173.721 31.6649 171.648 32.2979 169.141 32.2979C167.255 32.2979 165.567 31.8759 164.078 31.032C162.589 30.1881 161.422 28.9842 160.578 27.4205C159.734 25.832 159.312 23.9828 159.312 21.873C159.312 19.7633 159.722 17.9265 160.541 16.3628C161.385 14.7991 162.551 13.6076 164.041 12.7886C165.53 11.9446 167.23 11.5227 169.141 11.5227C171.077 11.5227 172.753 11.9446 174.168 12.7886C175.607 13.6076 176.699 14.7122 177.444 16.1022C178.189 17.4673 178.561 18.9442 178.561 20.5327ZM176.885 21.1656C176.96 19.3785 176.637 17.8644 175.917 16.6234C175.222 15.3823 174.267 14.464 173.051 13.8683C171.834 13.2477 170.519 12.9375 169.104 12.9375C167.689 12.9375 166.374 13.2477 165.158 13.8683C163.966 14.464 162.986 15.3823 162.216 16.6234C161.472 17.8644 161.074 19.3785 161.025 21.1656H176.885ZM182.582 21.873C182.582 19.7633 182.991 17.9265 183.811 16.3628C184.654 14.7991 185.809 13.6076 187.273 12.7886C188.762 11.9446 190.463 11.5227 192.374 11.5227C194.906 11.5227 196.978 12.1556 198.591 13.4215C200.23 14.6874 201.247 16.3876 201.644 18.5222H199.895C199.572 16.7847 198.728 15.4196 197.363 14.4267C196.022 13.4339 194.359 12.9375 192.374 12.9375C190.885 12.9375 189.532 13.2726 188.316 13.9427C187.099 14.5881 186.119 15.5933 185.374 16.9585C184.654 18.2988 184.295 19.937 184.295 21.873C184.295 23.8339 184.654 25.4845 185.374 26.8248C186.119 28.1652 187.099 29.1704 188.316 29.8406C189.532 30.5107 190.885 30.8458 192.374 30.8458C194.359 30.8458 196.022 30.3494 197.363 29.3566C198.728 28.3637 199.572 26.9986 199.895 25.2611H201.644C201.247 27.3709 200.23 29.0711 198.591 30.3618C196.953 31.6525 194.881 32.2979 192.374 32.2979C190.463 32.2979 188.762 31.8759 187.273 31.032C185.809 30.1881 184.654 28.9842 183.811 27.4205C182.991 25.832 182.582 23.9828 182.582 21.873ZM215.908 11.3738C218.29 11.3738 220.239 12.1184 221.753 13.6076C223.267 15.0721 224.024 17.2563 224.024 20.1604V32H222.386V20.2721C222.386 17.8644 221.778 16.0277 220.561 14.7618C219.345 13.4711 217.695 12.8258 215.61 12.8258C213.425 12.8258 211.676 13.5208 210.36 14.9107C209.069 16.3007 208.424 18.3609 208.424 21.0912V32H206.749V4.4487H208.424V16.0649C208.995 14.5508 209.951 13.3967 211.291 12.6024C212.631 11.7833 214.17 11.3738 215.908 11.3738ZM229.685 32.1117C229.263 32.1117 228.916 31.9752 228.642 31.7021C228.369 31.4291 228.233 31.0816 228.233 30.6597C228.233 30.2377 228.369 29.8902 228.642 29.6172C228.916 29.3442 229.263 29.2076 229.685 29.2076C230.082 29.2076 230.417 29.3442 230.69 29.6172C230.963 29.8902 231.1 30.2377 231.1 30.6597C231.1 31.0816 230.963 31.4291 230.69 31.7021C230.417 31.9752 230.082 32.1117 229.685 32.1117Z" fill="white"/>
</svg>
